<svg width="372" height="123" viewBox="0 0 372 123" fill="none" xmlns="http://www.w3.org/2000/svg">
<g clip-path="url(#clip0_110_106)">
<path d="M372 123H305.866C305.866 123 305.866 118.095 305.866 105.949V104.661V103.521V102.106H307.933H310H324.071C324.071 102.106 324.071 103.014 324.071 104.69V108.951C324.071 108.951 326.31 108.951 329.032 108.951H353.914C353.914 108.951 353.914 107.018 353.914 100.429V88.8401C353.914 88.8401 345.62 88.8401 337.073 88.8401H305.869C305.869 88.8401 305.869 83.159 305.869 70.3691L305.866 31.1686L305.869 30.0249L305.869 28.6997L306.681 28.7119C306.681 28.7119 308.023 28.678 308.346 28.7122H324.071C324.071 28.7122 324.071 29.62 324.071 31.1721V65.5006C324.071 72.214 324.071 73.5098 324.071 73.5098C331.748 73.5098 353.907 73.5098 353.907 73.5098C353.907 73.5098 353.907 70.0177 353.907 62.9162V28.6999C353.907 28.6999 354.77 28.7122 356.384 28.7122H369.639L370.698 28.7127H371.989L372 30.7499L371.989 31.1721V102.465C371.982 116.016 372 123 372 123Z" fill="white"/>
<path d="M256.638 42.4369H248C248 42.4369 248 41.6712 248 40.0171V27.268C248 27.268 248.862 27.268 250.466 27.268H256.652V-0.00012207C256.652 -0.00012207 263.076 9.3472e-05 275.792 9.3472e-05H293.467C293.467 9.3472e-05 293.467 0.895781 293.467 2.41989V15.1618C293.467 15.1618 292.724 15.1618 290.994 15.1618H274.866C274.866 15.1618 274.804 16.6931 274.804 22.4284V27.268H293.467C293.467 27.268 293.467 28.1637 293.467 29.695V42.4369C293.467 42.4369 292.724 42.4369 290.994 42.4369H274.804V94.3001C274.804 94.3001 273.935 94.3001 272.205 94.3001H256.638C256.638 94.3001 256.638 93.4116 256.638 91.8803V42.4369Z" fill="white"/>
<path d="M198.788 42.4367H190.133C190.133 42.4367 190.133 41.671 190.133 40.0169V27.2678C190.133 27.2678 190.995 27.2678 192.605 27.2678H198.781V18.9899C198.788 6.37082 198.781 -0.00012207 198.781 -0.00012207H233.128C234.858 -0.00012207 235.6 0.000155361 235.6 0.000155361V12.7418C235.6 14.4031 235.6 15.1616 235.6 15.1616C233.87 15.1616 225.103 15.1616 225.103 15.1616C218.304 15.1616 216.946 15.1616 216.946 15.1616V27.2678H233.128C234.858 27.2678 235.6 27.2678 235.6 27.2678V40.0169C235.6 41.671 235.6 42.4367 235.6 42.4367H216.946V91.8801C216.946 93.4114 216.946 94.2999 216.946 94.2999H201.26C199.531 94.2999 198.788 94.2999 198.788 94.2999V42.4367Z" fill="white"/>
<path d="M177.733 94.2999C177.733 94.2999 172.52 94.2999 160.078 94.2999H111.6C111.6 94.2999 111.6 88.8132 111.6 76.4611V28.6999C111.6 28.6999 116.934 28.6999 129.262 28.6999L177.733 28.6999C177.733 28.6999 177.733 34.1937 177.733 46.5387V94.2999ZM160.313 51.2689C160.313 44.7782 160.078 43.5338 160.078 43.5338H137.673C130.209 43.5338 129.02 43.5338 129.02 43.5338V71.7238C129.02 78.2075 129.02 79.4589 129.02 79.4589H151.781C159.131 79.4589 160.313 79.4589 160.313 79.4589V51.2689Z" fill="white"/>
<path d="M91.2786 43.5666C80.4268 43.5666 75.7889 43.5666 75.7889 43.5666V91.9328C75.7889 93.4308 75.7889 94.2999 75.7889 94.2999H57.8664C57.8664 94.2999 57.8663 93.4308 57.8663 91.9328V28.7285C57.8663 28.7285 58.7165 28.7282 60.4237 28.7282C60.4237 28.7282 72.1256 28.7282 73.7154 28.7282H76.1088L78.533 28.7275C78.533 28.7275 82.3898 28.6999 92.9996 28.6999H99.1996C99.1996 28.6999 99.1996 29.5761 99.1996 31.074V43.5666C99.1996 43.5666 98.3495 43.5666 96.7666 43.5666H91.2786Z" fill="white"/>
<path d="M8.65524 14.2065H2.47212C0.86156 14.2065 0.000263691 14.2065 0.000263691 14.2065V27.1777C0.000263691 28.7091 -7.62939e-05 29.3734 -7.62939e-05 29.3734H8.64825V94.3C8.64825 94.3 15.0765 94.3 27.7999 94.3H42.9951C44.7247 94.3 45.4669 94.3 45.4669 94.3V81.5581C45.4669 79.8967 45.4669 79.1383 45.4669 79.1383C43.7373 79.1383 34.9703 79.1383 34.9703 79.1383C28.171 79.1383 26.8125 79.1383 26.8125 79.1383V29.3782L42.9951 29.3734C44.7247 29.3734 45.4669 29.3734 45.4669 29.3734V16.6772C45.4669 15.0231 45.4669 14.2065 45.4669 14.2065H26.8125C26.8125 14.2065 26.8125 1.53138 26.8125 3.9497e-05L24.2216 -3.05176e-05C22.492 -3.05176e-05 12.4003 0.000147207 12.4003 0.000147207H8.65524C8.65524 1.53148 8.65524 14.2065 8.65524 14.2065Z" fill="white"/>
</g>
<defs>
<clipPath id="clip0_110_106">
<rect width="372" height="123" fill="white"/>
</clipPath>
</defs>
</svg>
