<svg width="30" height="30" viewBox="0 0 30 30" fill="none" xmlns="http://www.w3.org/2000/svg">
<g clip-path="url(#clip0_1027_48)">
<path d="M26.8594 3.7674C23.4727 0.919741 18.2402 1.34748 15 4.6463C11.7598 1.34748 6.52735 0.913882 3.14063 3.7674C-1.26562 7.47638 -0.621087 13.5233 2.51954 16.7283L12.7969 27.199C13.3828 27.7967 14.168 28.1307 15 28.1307C15.8379 28.1307 16.6172 27.8026 17.2031 27.2049L27.4805 16.7342C30.6152 13.5291 31.2715 7.48224 26.8594 3.7674ZM25.4766 14.7537L15.1992 25.2244C15.0586 25.3651 14.9414 25.3651 14.8008 25.2244L4.52345 14.7537C2.38477 12.574 1.95118 8.44904 4.95118 5.92365C7.23048 4.00763 10.7461 4.29474 12.9492 6.53888L15 8.63068L17.0508 6.53888C19.2656 4.28302 22.7813 4.00763 25.0488 5.91779C28.043 8.44318 27.5977 12.5916 25.4766 14.7537Z" fill="#111111"/>
</g>
<defs>
<clipPath id="clip0_1027_48">
<rect width="30" height="30" fill="white"/>
</clipPath>
</defs>
</svg>
