<svg width="90" height="30" viewBox="0 0 90 30" fill="none" xmlns="http://www.w3.org/2000/svg">
<g clip-path="url(#clip0_149_137)">
<path d="M89.9999 30.0001H73.9999C73.9999 30.0001 73.9999 28.8037 73.9999 25.8414V25.5271V25.249V24.9039H74.4999H74.9999H78.4043C78.4043 24.9039 78.4043 25.1253 78.4043 25.5342V26.5735C78.4043 26.5735 78.9459 26.5735 79.6046 26.5735H85.6243C85.6243 26.5735 85.6243 26.1021 85.6243 24.495V21.6683C85.6243 21.6683 83.6177 21.6683 81.55 21.6683H74.0007C74.0007 21.6683 74.0007 20.2827 74.0007 17.1632L73.9999 7.60211L74.0006 7.32317L74.0007 6.99996L74.1971 7.00292C74.1971 7.00292 74.5218 6.99465 74.6 7.003H78.4043C78.4043 7.003 78.4043 7.22442 78.4043 7.60297V15.9758C78.4043 17.6132 78.4043 17.9292 78.4043 17.9292C80.2615 17.9292 85.6226 17.9292 85.6226 17.9292C85.6226 17.9292 85.6226 17.0775 85.6226 15.3454V7.00001C85.6226 7.00001 85.8314 7.003 86.2219 7.003H89.4287L89.685 7.00312H89.9974L89.9999 7.5L89.9974 7.60297V24.9914C89.9957 28.2966 89.9999 30.0001 89.9999 30.0001Z" fill="black"/>
<path d="M62.0899 10.3505H59.9999C59.9999 10.3505 60.0001 10.1637 60.0001 9.7603V6.65076C60.0001 6.65076 60.2086 6.65076 60.5967 6.65076H62.0933V0C62.0933 0 63.6475 5.25713e-05 66.7238 5.25713e-05H71.0001C71.0001 5.25713e-05 71.0001 0.218513 71.0001 0.590248V3.69802C71.0001 3.69802 70.8204 3.69802 70.4018 3.69802H66.4999C66.4999 3.69802 66.4848 4.07152 66.4848 5.47037V6.65076H71.0001C71.0001 6.65076 71.0001 6.86922 71.0001 7.24272V10.3505C71.0001 10.3505 70.8204 10.3505 70.4018 10.3505H66.4848V23.0001C66.4848 23.0001 66.2747 23.0001 65.856 23.0001H62.0899C62.0899 23.0001 62.0899 22.7834 62.0899 22.4099V10.3505Z" fill="black"/>
<path d="M48.094 10.3504H45.9999C45.9999 10.3504 46 10.1637 46 9.76025V6.65071C46 6.65071 46.2084 6.65071 46.5981 6.65071H48.0923V4.63171C48.094 1.55389 48.0923 0 48.0923 0H56.402C56.8204 0 57 6.76662e-05 57 6.76662e-05V3.10777C57 3.51298 57 3.69797 57 3.69797C56.5816 3.69797 54.4605 3.69797 54.4605 3.69797C52.8155 3.69797 52.4869 3.69797 52.4869 3.69797V6.65071H56.402C56.8204 6.65071 57 6.65071 57 6.65071V9.76025C57 10.1637 56.9999 10.3504 56.9999 10.3504H52.4869V22.4098C52.4869 22.7833 52.4869 23 52.4869 23H48.692C48.2735 23 48.094 23 48.094 23V10.3504Z" fill="black"/>
<path d="M43.0001 23C43.0001 23 41.7388 23 38.7286 23H26.9999C26.9999 23 27.0001 21.6618 27.0001 18.6491V7C27.0001 7 28.2906 7 31.2731 7L43.0001 7C43.0001 7 43.0001 8.33995 43.0001 11.3509V23ZM38.7855 12.5046C38.7855 10.9215 38.7286 10.618 38.7286 10.618H33.3081C31.5023 10.618 31.2146 10.618 31.2146 10.618V17.4936C31.2146 19.075 31.2146 19.3803 31.2146 19.3803H36.7213C38.4994 19.3803 38.7855 19.3803 38.7855 19.3803V12.5046Z" fill="black"/>
<path d="M22.0835 10.626C19.4581 10.626 18.3361 10.626 18.3361 10.626V22.4227C18.3361 22.788 18.3361 23 18.3361 23H14C14 23 13.9999 22.788 13.9999 22.4227V7.00698C13.9999 7.00698 14.2056 7.00689 14.6187 7.00689C14.6187 7.00689 17.4498 7.00689 17.8344 7.00689H18.4134L18.9999 7.00673C18.9999 7.00673 19.933 7 22.4999 7H23.9999C23.9999 7 23.9999 7.2137 23.9999 7.57906V10.626C23.9999 10.626 23.7943 10.626 23.4113 10.626H22.0835Z" fill="black"/>
<path d="M2.09397 3.46502H0.59805C0.208399 3.46502 2.12193e-05 3.46502 2.12193e-05 3.46502V6.62873C2.12193e-05 7.00222 -6.10352e-05 7.16425 -6.10352e-05 7.16425H2.09228V23C2.09228 23 3.64749 23 6.72573 23H10.402C10.8204 23 11 23 11 23V19.8922C11 19.487 11 19.302 11 19.302C10.5816 19.302 8.46052 19.302 8.46052 19.302C6.81552 19.302 6.48686 19.302 6.48686 19.302V7.16543L10.402 7.16425C10.8204 7.16425 11 7.16425 11 7.16425V4.06763C11 3.66418 11 3.46502 11 3.46502H6.48686C6.48686 3.46502 6.48686 0.373514 6.48686 1.70767e-05L5.86002 0C5.44157 0 3.00002 4.33475e-05 3.00002 4.33475e-05H2.09397C2.09397 0.37354 2.09397 3.46502 2.09397 3.46502Z" fill="black"/>
</g>
<defs>
<clipPath id="clip0_149_137">
<rect width="90" height="30" fill="white"/>
</clipPath>
</defs>
</svg>
