<svg width="69" height="110" viewBox="0 0 69 110" fill="none" xmlns="http://www.w3.org/2000/svg">
<path d="M62.6354 2.97996C62.6354 4.62574 63.9742 5.95992 65.6258 5.95992C67.2774 5.95992 68.6163 4.62574 68.6163 2.97996C68.6163 1.33417 67.2774 -5.85243e-08 65.6258 -1.30717e-07C63.9742 -2.0291e-07 62.6354 1.33417 62.6354 2.97996Z" fill="#333333"/>
<path d="M62.6354 23.7962C62.6354 25.442 63.9742 26.7762 65.6258 26.7762C67.2774 26.7762 68.6163 25.442 68.6163 23.7962C68.6163 22.1505 67.2774 20.8163 65.6258 20.8163C63.9742 20.8163 62.6354 22.1505 62.6354 23.7962Z" fill="#333333"/>
<path d="M62.6354 44.5938C62.6354 46.2396 63.9742 47.5737 65.6258 47.5737C67.2774 47.5737 68.6163 46.2396 68.6163 44.5938C68.6163 42.948 67.2774 41.6138 65.6258 41.6138C63.9742 41.6138 62.6354 42.948 62.6354 44.5938Z" fill="#333333"/>
<path d="M62.6354 65.4071C62.6354 67.0529 63.9742 68.3871 65.6258 68.3871C67.2774 68.3871 68.6163 67.0529 68.6163 65.4071C68.6163 63.7614 67.2774 62.4272 65.6258 62.4272C63.9742 62.4272 62.6354 63.7614 62.6354 65.4071Z" fill="#333333"/>
<path d="M62.6354 86.2066C62.6354 87.8524 63.9742 89.1865 65.6258 89.1865C67.2774 89.1865 68.6163 87.8524 68.6163 86.2066C68.6163 84.5608 67.2774 83.2266 65.6258 83.2266C63.9742 83.2266 62.6354 84.5608 62.6354 86.2066Z" fill="#333333"/>
<path d="M62.6354 107.02C62.6354 108.666 63.9742 110 65.6258 110C67.2774 110 68.6163 108.666 68.6163 107.02C68.6163 105.374 67.2774 104.04 65.6258 104.04C63.9742 104.04 62.6354 105.374 62.6354 107.02Z" fill="#333333"/>
<path d="M41.7618 2.9802C41.7618 4.62599 43.1007 5.96016 44.7523 5.96016C46.4039 5.96016 47.7428 4.62599 47.7428 2.9802C47.7428 1.33442 46.4039 0.000244082 44.7523 0.00024401C43.1007 0.000243938 41.7618 1.33442 41.7618 2.9802Z" fill="#333333"/>
<path d="M41.7618 23.7962C41.7618 25.442 43.1007 26.7762 44.7523 26.7762C46.4039 26.7762 47.7428 25.442 47.7428 23.7962C47.7428 22.1505 46.4039 20.8163 44.7523 20.8163C43.1007 20.8163 41.7618 22.1505 41.7618 23.7962Z" fill="#333333"/>
<path d="M41.7618 44.5938C41.7618 46.2396 43.1007 47.5737 44.7523 47.5737C46.4039 47.5737 47.7428 46.2396 47.7428 44.5938C47.7428 42.948 46.4039 41.6138 44.7523 41.6138C43.1007 41.6138 41.7618 42.948 41.7618 44.5938Z" fill="#333333"/>
<path d="M41.7618 65.4071C41.7618 67.0529 43.1007 68.3871 44.7523 68.3871C46.4039 68.3871 47.7428 67.0529 47.7428 65.4071C47.7428 63.7614 46.4039 62.4272 44.7523 62.4272C43.1007 62.4272 41.7618 63.7614 41.7618 65.4071Z" fill="#333333"/>
<path d="M41.7618 86.2066C41.7618 87.8524 43.1007 89.1865 44.7523 89.1865C46.4039 89.1865 47.7428 87.8524 47.7428 86.2066C47.7428 84.5608 46.4039 83.2266 44.7523 83.2266C43.1007 83.2266 41.7618 84.5608 41.7618 86.2066Z" fill="#333333"/>
<path d="M41.7618 107.02C41.7618 108.666 43.1007 110 44.7523 110C46.4039 110 47.7428 108.666 47.7428 107.02C47.7428 105.374 46.4039 104.04 44.7523 104.04C43.1007 104.04 41.7618 105.374 41.7618 107.02Z" fill="#333333"/>
<path d="M20.8732 2.9802C20.8732 4.62599 22.212 5.96016 23.8636 5.96016C25.5152 5.96016 26.8541 4.62599 26.8541 2.9802C26.8541 1.33442 25.5152 0.000244082 23.8636 0.00024401C22.212 0.000243938 20.8732 1.33442 20.8732 2.9802Z" fill="#333333"/>
<path d="M20.8732 23.7962C20.8732 25.442 22.212 26.7762 23.8636 26.7762C25.5152 26.7762 26.8541 25.442 26.8541 23.7962C26.8541 22.1505 25.5152 20.8163 23.8636 20.8163C22.212 20.8163 20.8732 22.1505 20.8732 23.7962Z" fill="#333333"/>
<path d="M20.8732 44.5938C20.8732 46.2396 22.212 47.5737 23.8636 47.5737C25.5152 47.5737 26.8541 46.2396 26.8541 44.5938C26.8541 42.948 25.5152 41.6138 23.8636 41.6138C22.212 41.6138 20.8732 42.948 20.8732 44.5938Z" fill="#333333"/>
<path d="M20.8732 65.4071C20.8732 67.0529 22.212 68.3871 23.8636 68.3871C25.5152 68.3871 26.8541 67.0529 26.8541 65.4071C26.8541 63.7614 25.5152 62.4272 23.8636 62.4272C22.212 62.4272 20.8732 63.7614 20.8732 65.4071Z" fill="#333333"/>
<path d="M20.8732 86.2066C20.8732 87.8524 22.212 89.1865 23.8636 89.1865C25.5152 89.1865 26.8541 87.8524 26.8541 86.2066C26.8541 84.5608 25.5152 83.2266 23.8636 83.2266C22.212 83.2266 20.8732 84.5608 20.8732 86.2066Z" fill="#333333"/>
<path d="M20.8732 107.02C20.8732 108.666 22.212 110 23.8636 110C25.5152 110 26.8541 108.666 26.8541 107.02C26.8541 105.374 25.5152 104.04 23.8636 104.04C22.212 104.04 20.8732 105.374 20.8732 107.02Z" fill="#333333"/>
<path d="M9.71445e-05 2.9802C9.70726e-05 4.62599 1.33898 5.96016 2.99056 5.96016C4.64214 5.96016 5.98103 4.62599 5.98103 2.9802C5.98103 1.33442 4.64215 0.000244082 2.99056 0.00024401C1.33898 0.000243938 9.72165e-05 1.33442 9.71445e-05 2.9802Z" fill="#333333"/>
<path d="M9.71445e-05 23.7962C9.70726e-05 25.442 1.33898 26.7762 2.99056 26.7762C4.64214 26.7762 5.98103 25.442 5.98103 23.7962C5.98103 22.1505 4.64215 20.8163 2.99056 20.8163C1.33898 20.8163 9.72165e-05 22.1505 9.71445e-05 23.7962Z" fill="#333333"/>
<path d="M9.71445e-05 44.5938C9.70726e-05 46.2396 1.33898 47.5737 2.99056 47.5737C4.64214 47.5737 5.98103 46.2396 5.98103 44.5938C5.98103 42.948 4.64215 41.6138 2.99056 41.6138C1.33898 41.6138 9.72165e-05 42.948 9.71445e-05 44.5938Z" fill="#333333"/>
<path d="M0.000104774 65.4071C0.000104702 67.0529 1.33899 68.3871 2.99057 68.3871C4.64215 68.3871 5.98103 67.0529 5.98103 65.4071C5.98103 63.7614 4.64215 62.4272 2.99057 62.4272C1.33899 62.4272 0.000104846 63.7614 0.000104774 65.4071Z" fill="#333333"/>
<path d="M0.000104774 86.2066C0.000104702 87.8524 1.33899 89.1865 2.99057 89.1865C4.64215 89.1865 5.98103 87.8524 5.98103 86.2066C5.98103 84.5608 4.64215 83.2266 2.99057 83.2266C1.33899 83.2266 0.000104846 84.5608 0.000104774 86.2066Z" fill="#333333"/>
<path d="M9.71445e-05 107.02C9.70726e-05 108.666 1.33898 110 2.99056 110C4.64214 110 5.98103 108.666 5.98103 107.02C5.98103 105.374 4.64215 104.04 2.99056 104.04C1.33898 104.04 9.72165e-05 105.374 9.71445e-05 107.02Z" fill="#333333"/>
</svg>
