<svg width="48" height="27" viewBox="0 0 48 27" fill="none" xmlns="http://www.w3.org/2000/svg">
<path d="M45.0545 20.9903C43.4284 20.9903 42.1104 22.3358 42.1104 23.9954C42.1104 25.6551 43.4284 27.0005 45.0545 27.0005C46.6805 27.0005 47.9986 25.6551 47.9986 23.9954C47.9986 22.3358 46.6805 20.9904 45.0545 20.9903Z" fill="#333333"/>
<path d="M24.5079 20.9908C22.882 20.9908 21.5638 22.3363 21.5638 23.9959C21.5638 25.6556 22.882 27.001 24.5079 27.001C26.1339 27.001 27.4521 25.6556 27.4521 23.9959C27.4521 22.3363 26.1339 20.9908 24.5079 20.9908Z" fill="#333333"/>
<path d="M3.94288 20.9908C2.3169 20.9908 0.998867 22.3363 0.998867 23.9959C0.998867 25.6556 2.3169 27.001 3.94287 27.001C5.56885 27.001 6.88698 25.6556 6.88698 23.9959C6.88698 22.3363 5.56885 20.9908 3.94288 20.9908Z" fill="#333333"/>
<path d="M45.0559 -0.0004461C43.4299 -0.000446242 42.1118 1.34498 42.1118 3.00463C42.1118 4.66429 43.4299 6.0097 45.0559 6.0097C46.6819 6.0097 48.0001 4.66429 48.0001 3.00464C48.0001 1.34498 46.6819 -0.000445958 45.0559 -0.0004461Z" fill="#333333"/>
<path d="M24.5069 -0.0004461C22.881 -0.000446242 21.5628 1.34498 21.5628 3.00463C21.5628 4.66429 22.881 6.0097 24.5069 6.0097C26.1329 6.0097 27.451 4.66429 27.4511 3.00464C27.4511 1.34498 26.1329 -0.000445958 24.5069 -0.0004461Z" fill="#333333"/>
<path d="M3.9439 -0.0004461C2.31792 -0.000446242 0.99989 1.34498 0.99989 3.00463C0.999889 4.66429 2.31792 6.0097 3.9439 6.0097C5.56988 6.0097 6.888 4.66429 6.888 3.00464C6.888 1.34498 5.56988 -0.000445958 3.9439 -0.0004461Z" fill="#333333"/>
</svg>
