<svg width="27" height="47" viewBox="0 0 27 47" fill="none" xmlns="http://www.w3.org/2000/svg">
<path d="M20.9891 2.94621C20.9891 4.5722 22.3344 5.89024 23.994 5.89024C25.6536 5.89024 26.9989 4.5722 26.9989 2.94621C26.9989 1.32021 25.6536 0.00207514 23.994 0.00207506C22.3344 0.00207499 20.9891 1.32021 20.9891 2.94621Z" fill="#333333"/>
<path d="M20.9902 23.4938C20.9902 25.1198 22.3356 26.4379 23.9952 26.4379C25.6547 26.4379 27.0001 25.1198 27.0001 23.4938C27.0001 21.8679 25.6547 20.5497 23.9952 20.5497C22.3356 20.5497 20.9902 21.8679 20.9902 23.4938Z" fill="#333333"/>
<path d="M20.9902 44.056C20.9902 45.682 22.3356 47 23.9952 47C25.6547 47 27.0001 45.682 27.0001 44.056C27.0001 42.4301 25.6547 41.1119 23.9952 41.1119C22.3356 41.1119 20.9902 42.4301 20.9902 44.056Z" fill="#333333"/>
<path d="M0.000124326 2.94413C0.000124255 4.57013 1.34548 5.88817 3.00504 5.88817C4.66461 5.88817 6.00995 4.57013 6.00995 2.94413C6.00995 1.31814 4.66461 -5.88067e-08 3.00504 -1.31349e-07C1.34548 -2.03891e-07 0.000124397 1.31814 0.000124326 2.94413Z" fill="#333333"/>
<path d="M2.2555e-06 23.4938C2.18442e-06 25.1198 1.34535 26.4379 3.00492 26.4379C4.66449 26.4379 6.00983 25.1198 6.00983 23.4938C6.00983 21.8679 4.66449 20.5497 3.00492 20.5497C1.34535 20.5497 2.32657e-06 21.8679 2.2555e-06 23.4938Z" fill="#333333"/>
<path d="M2.2555e-06 44.0543C2.18442e-06 45.6803 1.34535 46.9983 3.00492 46.9983C4.66449 46.9983 6.00983 45.6803 6.00983 44.0543C6.00983 42.4283 4.66449 41.1102 3.00492 41.1102C1.34535 41.1102 2.32657e-06 42.4283 2.2555e-06 44.0543Z" fill="#333333"/>
</svg>
