<svg width="131" height="69" viewBox="0 0 131 69" fill="none" xmlns="http://www.w3.org/2000/svg">
<path d="M125.031 65.2717C125.031 66.9141 126.367 68.2456 128.015 68.2456C129.663 68.2456 131 66.9141 131 65.2717C131 63.6293 129.663 62.2979 128.015 62.2979C126.367 62.2979 125.031 63.6293 125.031 65.2717Z" fill="#333333"/>
<path d="M104.184 65.2717C104.184 66.9141 105.521 68.2455 107.169 68.2455C108.817 68.2455 110.153 66.9141 110.153 65.2717C110.153 63.6293 108.817 62.2979 107.169 62.2979C105.521 62.2979 104.184 63.6293 104.184 65.2717Z" fill="#333333"/>
<path d="M83.3539 65.2717C83.3539 66.9141 84.6901 68.2455 86.3383 68.2455C87.9865 68.2455 89.3226 66.9141 89.3226 65.2717C89.3226 63.6293 87.9865 62.2979 86.3383 62.2979C84.6901 62.2979 83.3539 63.6293 83.3539 65.2717Z" fill="#333333"/>
<path d="M62.5075 65.2717C62.5075 66.9141 63.8436 68.2455 65.4918 68.2455C67.14 68.2455 68.4761 66.9141 68.4761 65.2717C68.4761 63.6293 67.14 62.2979 65.4918 62.2979C63.8436 62.2979 62.5075 63.6293 62.5075 65.2717Z" fill="#333333"/>
<path d="M41.677 65.2718C41.677 66.9142 43.0132 68.2456 44.6614 68.2456C46.3096 68.2456 47.6458 66.9142 47.6458 65.2718C47.6458 63.6294 46.3096 62.2979 44.6614 62.2979C43.0132 62.2979 41.677 63.6294 41.677 65.2718Z" fill="#333333"/>
<path d="M20.8305 65.2717C20.8305 66.9141 22.1666 68.2455 23.8148 68.2455C25.463 68.2455 26.7992 66.9141 26.7992 65.2717C26.7992 63.6293 25.463 62.2979 23.8148 62.2979C22.1666 62.2979 20.8305 63.6293 20.8305 65.2717Z" fill="#333333"/>
<path d="M9.61911e-05 65.2717C9.61193e-05 66.9141 1.33624 68.2455 2.98445 68.2455C4.63266 68.2455 5.96881 66.9141 5.96881 65.2717C5.96881 63.6293 4.63266 62.2979 2.98445 62.2979C1.33624 62.2979 9.62629e-05 63.6293 9.61911e-05 65.2717Z" fill="#333333"/>
<path d="M125.031 44.5005C125.031 46.1428 126.367 47.4742 128.015 47.4742C129.663 47.4742 131 46.1428 131 44.5005C131 42.8581 129.663 41.5267 128.015 41.5267C126.367 41.5267 125.031 42.8581 125.031 44.5005Z" fill="#333333"/>
<path d="M104.184 44.5005C104.184 46.1428 105.521 47.4742 107.169 47.4742C108.817 47.4742 110.153 46.1428 110.153 44.5005C110.153 42.8581 108.817 41.5267 107.169 41.5267C105.521 41.5267 104.184 42.8581 104.184 44.5005Z" fill="#333333"/>
<path d="M83.3539 44.5005C83.3539 46.1428 84.6901 47.4742 86.3383 47.4742C87.9865 47.4742 89.3226 46.1428 89.3226 44.5005C89.3226 42.8581 87.9865 41.5267 86.3383 41.5267C84.6901 41.5267 83.3539 42.8581 83.3539 44.5005Z" fill="#333333"/>
<path d="M62.5075 44.5005C62.5075 46.1428 63.8436 47.4742 65.4918 47.4742C67.14 47.4742 68.4761 46.1428 68.4761 44.5005C68.4761 42.8581 67.14 41.5267 65.4918 41.5267C63.8436 41.5267 62.5075 42.8581 62.5075 44.5005Z" fill="#333333"/>
<path d="M41.677 44.5005C41.677 46.1428 43.0132 47.4742 44.6614 47.4742C46.3096 47.4742 47.6458 46.1428 47.6458 44.5005C47.6458 42.8581 46.3096 41.5267 44.6614 41.5267C43.0132 41.5267 41.677 42.8581 41.677 44.5005Z" fill="#333333"/>
<path d="M20.8305 44.5005C20.8305 46.1428 22.1666 47.4742 23.8148 47.4742C25.463 47.4742 26.7992 46.1428 26.7992 44.5005C26.7992 42.8581 25.463 41.5267 23.8148 41.5267C22.1666 41.5267 20.8305 42.8581 20.8305 44.5005Z" fill="#333333"/>
<path d="M9.61911e-05 44.5005C9.61193e-05 46.1428 1.33624 47.4742 2.98445 47.4742C4.63266 47.4742 5.96881 46.1428 5.96881 44.5005C5.96881 42.8581 4.63266 41.5267 2.98445 41.5267C1.33624 41.5267 9.62629e-05 42.8581 9.61911e-05 44.5005Z" fill="#333333"/>
<path d="M125.031 23.7444C125.031 25.3868 126.367 26.7182 128.015 26.7182C129.663 26.7182 131 25.3868 131 23.7444C131 22.1021 129.663 20.7707 128.015 20.7707C126.367 20.7707 125.031 22.1021 125.031 23.7444Z" fill="#333333"/>
<path d="M104.184 23.7445C104.184 25.3869 105.521 26.7183 107.169 26.7183C108.817 26.7183 110.153 25.3869 110.153 23.7445C110.153 22.1021 108.817 20.7707 107.169 20.7707C105.521 20.7707 104.184 22.1021 104.184 23.7445Z" fill="#333333"/>
<path d="M83.3539 23.7445C83.3539 25.3869 84.6901 26.7183 86.3383 26.7183C87.9865 26.7183 89.3226 25.3869 89.3226 23.7445C89.3226 22.1021 87.9865 20.7707 86.3383 20.7707C84.6901 20.7707 83.3539 22.1021 83.3539 23.7445Z" fill="#333333"/>
<path d="M62.5075 23.7445C62.5075 25.3869 63.8436 26.7183 65.4918 26.7183C67.14 26.7183 68.4761 25.3869 68.4761 23.7445C68.4761 22.1021 67.14 20.7707 65.4918 20.7707C63.8436 20.7707 62.5075 22.1021 62.5075 23.7445Z" fill="#333333"/>
<path d="M41.677 23.7445C41.677 25.3869 43.0132 26.7183 44.6614 26.7183C46.3096 26.7183 47.6458 25.3869 47.6458 23.7445C47.6458 22.1021 46.3096 20.7707 44.6614 20.7707C43.0132 20.7707 41.677 22.1021 41.677 23.7445Z" fill="#333333"/>
<path d="M20.8305 23.7445C20.8305 25.3869 22.1666 26.7183 23.8148 26.7183C25.463 26.7183 26.7992 25.3869 26.7992 23.7445C26.7992 22.1021 25.463 20.7707 23.8148 20.7707C22.1666 20.7707 20.8305 22.1021 20.8305 23.7445Z" fill="#333333"/>
<path d="M9.61911e-05 23.7445C9.61193e-05 25.3869 1.33624 26.7183 2.98445 26.7183C4.63266 26.7183 5.96881 25.3869 5.96881 23.7445C5.96881 22.1021 4.63266 20.7707 2.98445 20.7707C1.33624 20.7707 9.62629e-05 22.1021 9.61911e-05 23.7445Z" fill="#333333"/>
<path d="M125.029 2.97423C125.029 4.6166 126.365 5.94802 128.013 5.94802C129.661 5.94802 130.997 4.6166 130.997 2.97423C130.997 1.33186 129.661 0.000442446 128.013 0.000442374C126.365 0.000442302 125.029 1.33186 125.029 2.97423Z" fill="#333333"/>
<path d="M104.184 2.97379C104.184 4.61616 105.521 5.94758 107.169 5.94758C108.817 5.94758 110.153 4.61616 110.153 2.97379C110.153 1.33141 108.817 -5.84043e-08 107.169 -1.30449e-07C105.521 -2.02494e-07 104.184 1.33141 104.184 2.97379Z" fill="#333333"/>
<path d="M83.3539 2.97379C83.3539 4.61616 84.6901 5.94758 86.3383 5.94758C87.9865 5.94758 89.3226 4.61616 89.3226 2.97379C89.3226 1.33141 87.9865 -5.84048e-08 86.3383 -1.3045e-07C84.6901 -2.02496e-07 83.3539 1.33141 83.3539 2.97379Z" fill="#333333"/>
<path d="M62.5075 2.97379C62.5075 4.61616 63.8436 5.94758 65.4918 5.94758C67.14 5.94758 68.4761 4.61616 68.4761 2.97379C68.4761 1.33141 67.14 -5.84043e-08 65.4918 -1.30449e-07C63.8436 -2.02494e-07 62.5075 1.33141 62.5075 2.97379Z" fill="#333333"/>
<path d="M41.677 2.97379C41.677 4.61616 43.0132 5.94758 44.6614 5.94758C46.3096 5.94758 47.6458 4.61616 47.6458 2.97379C47.6458 1.33141 46.3096 -5.84048e-08 44.6614 -1.3045e-07C43.0132 -2.02496e-07 41.677 1.33141 41.677 2.97379Z" fill="#333333"/>
<path d="M20.8305 2.97379C20.8305 4.61616 22.1666 5.94758 23.8148 5.94758C25.463 5.94758 26.7992 4.61616 26.7992 2.97379C26.7992 1.33141 25.463 -5.84048e-08 23.8148 -1.3045e-07C22.1666 -2.02496e-07 20.8305 1.33141 20.8305 2.97379Z" fill="#333333"/>
<path d="M9.61911e-05 2.97379C9.61193e-05 4.61616 1.33624 5.94758 2.98445 5.94758C4.63266 5.94758 5.96881 4.61616 5.96881 2.97379C5.96881 1.33141 4.63266 -5.84048e-08 2.98445 -1.3045e-07C1.33624 -2.02496e-07 9.62629e-05 1.33141 9.61911e-05 2.97379Z" fill="#333333"/>
</svg>
