<svg width="24" height="24" viewBox="0 0 24 24" fill="none" xmlns="http://www.w3.org/2000/svg">
<path d="M12.0001 4.5C7.00012 4.5 2.73012 7.61 1.00012 12C2.73012 16.39 7.00012 19.5 12.0001 19.5C17.0001 19.5 21.2701 16.39 23.0001 12C21.2701 7.61 17.0001 4.5 12.0001 4.5ZM12.0001 17C9.24012 17 7.00012 14.76 7.00012 12C7.00012 9.24 9.24012 7 12.0001 7C14.7601 7 17.0001 9.24 17.0001 12C17.0001 14.76 14.7601 17 12.0001 17ZM12.0001 9C10.3401 9 9.00012 10.34 9.00012 12C9.00012 13.66 10.3401 15 12.0001 15C13.6601 15 15.0001 13.66 15.0001 12C15.0001 10.34 13.6601 9 12.0001 9Z" fill="#96A1A3"/>
</svg>
