<svg width="30" height="30" viewBox="0 0 30 30" fill="none" xmlns="http://www.w3.org/2000/svg">
<path d="M19.375 17.4998H18.3875L18.0375 17.1623C19.5375 15.4123 20.3125 13.0248 19.8876 10.4873C19.3 7.01231 16.4 4.23731 12.9 3.81231C7.61255 3.16231 3.16255 7.6123 3.81255 12.8998C4.23755 16.3998 7.01255 19.2998 10.4875 19.8873C13.0251 20.3123 15.4125 19.5373 17.1625 18.0373L17.5 18.3873V19.3748L22.8125 24.6873C23.3251 25.1998 24.1625 25.1998 24.675 24.6873C25.1875 24.1748 25.1875 23.3373 24.675 22.8248L19.375 17.4998ZM11.875 17.4998C8.76255 17.4998 6.25005 14.9873 6.25005 11.8748C6.25005 8.7623 8.76255 6.24981 11.875 6.24981C14.9875 6.24981 17.5 8.7623 17.5 11.8748C17.5 14.9873 14.9875 17.4998 11.875 17.4998Z" fill="#F47934"/>
</svg>
